<svg xmlns="http://www.w3.org/2000/svg" width="185.11" height="125.55" viewBox="0 0 185.11 125.55"><defs><style>.cls-1{fill:#7e318e;}.cls-2{fill:#d2cce6;}.cls-3{fill:#e50065;}.cls-4{fill:#fff;}.cls-5{fill:#0068b6;}.cls-6{fill:#e85298;}</style></defs><title>logo</title><g id="レイヤー_2" data-name="レイヤー 2"><g id="レイヤー_1-2" data-name="レイヤー 1"><path class="cls-1" d="M92.55,125.55c51.12,0,92.56-25,92.56-55.87S143.67,13.8,92.55,13.8,0,38.82,0,69.68,41.44,125.55,92.55,125.55Z"/><path class="cls-2" d="M92.55,123.4c47.33,0,85.7-24.05,85.7-53.72S139.88,16,92.55,16,6.86,40,6.86,69.68,45.23,123.4,92.55,123.4Z"/><path class="cls-1" d="M54.87,69c-2.64.28-3.66.4-3.66,3.72v5.13c-2,1.37-7.79,2.5-11.49,2.5-10.63,0-15.4-7.15-15.4-14.18,0-8,5.87-14.51,15.06-14.51,3.83,0,7.11,2,8.21,2s1.53-.85,2-1.86H50.7V61.2H49.64C48.15,57.68,44.57,53,39.72,53c-6.17,0-7.87,6.15-7.87,13.1,0,2.87.26,12.93,8.3,12.93,3.74,0,4.42-1.21,4.42-3V71.79c0-2.59-1.36-2.67-4.29-2.83V68H54.87Z"/><path class="cls-1" d="M66.19,60.43c5.57,0,9.57,4.24,9.57,9.86,0,5.38-3.79,9.82-9.57,9.82s-9.62-4.57-9.62-9.82S60.27,60.43,66.19,60.43Zm0,18.43c2.94,0,3.28-3.44,3.28-8.57,0-6.22-.73-8.61-3.32-8.61-3.15,0-3.36,4-3.36,8.61C62.83,74.66,62.83,78.86,66.23,78.86Z"/><path class="cls-1" d="M84.4,79.47c0,2.3,0,13-7.83,13-2.34,0-5.66-1.13-5.66-4.12a2.44,2.44,0,0,1,2.64-2.39,2.36,2.36,0,0,1,2.51,2.19c0,1-1,1.77-1,2.38s1.24.69,1.36.69c1.71,0,2-1.38,2-3.07V64.27c0-2.23-1.2-2.26-2.69-2.39v-1h8.6ZM81.21,51.62a3.24,3.24,0,0,1,3.32,3.15,3.18,3.18,0,0,1-3.32,3.11,3.1,3.1,0,0,1-3.28-3.11A3.17,3.17,0,0,1,81.21,51.62Z"/><path class="cls-1" d="M97.32,60.43c5.58,0,9.58,4.24,9.58,9.86,0,5.38-3.79,9.82-9.58,9.82s-9.61-4.57-9.61-9.82S91.41,60.43,97.32,60.43Zm.05,18.43c2.93,0,3.27-3.44,3.27-8.57,0-6.22-.72-8.61-3.32-8.61-3.14,0-3.36,4-3.36,8.61C94,74.66,94,78.86,97.37,78.86Z"/><path class="cls-1" d="M128.89,61.84a6.81,6.81,0,0,0-3.7,1.38,40.59,40.59,0,0,0-4.34,3.92L129.11,78a1.14,1.14,0,0,0,1.06.61v1h-10v-1c.6,0,1.79-.12,1.79-.77A4.36,4.36,0,0,0,121,76l-4-5.42-1,1v4.61c0,1.78.17,2.14,2.21,2.43v1H108v-1c1.7,0,2-1.46,2-2.43V55.54a2,2,0,0,0-2-2.35v-1h8V69.64l5.45-5.17A3.18,3.18,0,0,0,122.3,63c0-.8-.47-.88-2.51-1.17v-.93h9.1Z"/><path class="cls-1" d="M150.63,77.81a6.28,6.28,0,0,1-4.68,2.3c-3,0-3.32-1.7-3.57-2.83a9.88,9.88,0,0,1-6.77,2.83c-2,0-4.68-1.25-4.68-4.32,0-4.21,5.4-5.82,11.45-7.56v-3c0-2.06-.6-3.56-3.75-3.56-1.53,0-2.51.81-2.51,1.46,0,.84,1.28,1.17,1.28,2.75,0,.72-.64,2.26-2.85,2.26a2.53,2.53,0,0,1-2.81-2.75c0-2.55,2.68-5,7.95-5,4.73,0,8.51,1.74,8.51,5.54V76.51a.87.87,0,0,0,.94,1,.54.54,0,0,0,.43-.16L150,77Zm-8.29-8.17c-1,.21-5.19,1.38-5.19,4.89,0,1.26.63,2.71,2.16,2.71a4.3,4.3,0,0,0,3-1.73Z"/><path class="cls-1" d="M162.18,79.55H152v-1c1.53-.37,2.25-.49,2.25-2.43V64.27c0-1.82-.63-2.1-2.25-2.39v-1h8.17V76.27c0,1.25.34,2.14,2,2.31Zm-5-27.93a3.21,3.21,0,0,1,3.28,3.15,3.31,3.31,0,0,1-6.6,0A3.22,3.22,0,0,1,157.2,51.62Z"/><path class="cls-3" d="M126.25,94.74A5.77,5.77,0,1,0,120.6,89,5.71,5.71,0,0,0,126.25,94.74Z"/><path class="cls-3" d="M101.2,83.22H99.7a.83.83,0,0,1,.2.62V91c0,4.42,8.67,4.3,8.65-.12v-7c0-.33,0-.44.23-.64h-1.07c.26.2.22.36.22.64v7c0,3.68-7,3.79-7,.1V83.82C101,83.58,101,83.27,101.2,83.22Z"/><path class="cls-3" d="M88.62,91V83.82c0-.24,0-.55.24-.6h-1.5a.83.83,0,0,1,.2.62V91"/><path class="cls-3" d="M87.56,86.12v7.15c0,.24-.06.54-.24.6h1.5a.79.79,0,0,1-.2-.62V86.1"/><path class="cls-3" d="M132.58,91.45V84.3a.79.79,0,0,0-.2-.62h4.72c7,0,7.28,10.73,0,10.77h-4.76c.19-.06.24-.36.24-.6V86.58m1.1,6.23c.06.68.28,1.12,1.2,1.1h1.65c6.24-.06,6.18-9.63.12-9.69h-3v8.59"/><path class="cls-3" d="M147.65,88.54a2.27,2.27,0,0,0,.6-.17h0v.85s.06-.06-.6-.15"/><path class="cls-3" d="M159,83.9a1.14,1.14,0,0,1,.26,1v7.91l-9.17-8.55v9.51c0,.58,0,.7-.22,1h1.08c-.2-.25-.28-.35-.26-1V86.08l9.15,8.55V94.5l0,0V84.86c0-.58,0-.7.22-1Z"/><path class="cls-4" d="M126.25,94.28A5.34,5.34,0,1,0,121.5,89,5.05,5.05,0,0,0,126.25,94.28Z"/><path class="cls-5" d="M126.25,93.72c2.25,0,4.07-2.12,4.07-4.75s-1.82-4.74-4.07-4.74-4.07,2.12-4.07,4.74S124,93.72,126.25,93.72Z"/><path class="cls-3" d="M144.62,84.17a.55.55,0,0,1,.32-.52h-1.5a.76.76,0,0,1,.2.62"/><path class="cls-3" d="M148.44,83.65a5.73,5.73,0,0,0,.91-.09v1.29a1.16,1.16,0,0,0-1.08-.68"/><rect class="cls-3" x="143.29" y="88.52" width="4.97" height="0.56"/><path class="cls-3" d="M143.13,94.6H149V94h-3.65a1.18,1.18,0,0,1-1.17-1.13V83.65h-1V94c0,.24,0,.54-.21.6h1.42"/><rect class="cls-3" x="143.66" y="83.65" width="5.7" height="0.56"/><path class="cls-3" d="M148.58,94.57a7.6,7.6,0,0,1,.91.09v-.07h0l.05-1.19a1.29,1.29,0,0,1-1.13.67"/><polygon class="cls-3" points="97.54 83.2 89.82 93.96 91.02 93.96 98.63 83.2 97.54 83.2"/><polygon class="cls-3" points="98.98 93.92 98.98 93.36 90.76 93.37 90.34 93.93 98.98 93.92"/><path class="cls-3" d="M98.73,93.9a8,8,0,0,1,.92.09v-.07h0V92.62a1.19,1.19,0,0,1-1.08.77"/><polygon class="cls-3" points="98.22 83.76 98.68 83.2 90.39 83.2 90.39 83.76 98.22 83.76"/><path class="cls-3" d="M91.11,83.26a5.92,5.92,0,0,1-.91-.09v.07h0v1.29a1.18,1.18,0,0,1,1.08-.76"/><path class="cls-3" d="M110.05,83.62l-.64,10.49s.64.1.62,0,.64-10.61.64-10.61Z"/><polygon class="cls-3" points="110.41 83.4 114.48 93.47 118.74 83.52 118.31 83.34 114.62 91.71 111.33 83.22 110.41 83.4"/><polygon class="cls-3" points="118.58 83.5 118.88 94.31 119.98 94.29 119.53 83.54 118.58 83.5"/><path class="cls-3" d="M109.45,93.51c0,.3,0,.44-.26.68h1.07c-.26-.24-.22-.4-.22-.68"/><path class="cls-3" d="M118.89,93.77c0,.24,0,.54-.24.6h1.54a.87.87,0,0,1-.24-.62"/><path class="cls-3" d="M111.33,83.22h-1.5a.83.83,0,0,1,.2.62"/><path class="cls-3" d="M119.53,83.94c0-.24.06-.54.22-.6h-1.43"/><polygon class="cls-4" points="82.23 19.37 65.95 4.28 30.93 22 43.09 32.34 51.35 36.9 59.07 52.12 68.58 44.41 78.06 41.63 82.23 19.37"/><path class="cls-6" d="M53.13,10.53C65.34-1.75,67.1.1,67.1.1S78.61,3.42,77.25,13.62c0,0,12.1-1.42,9.36,6.11,0,0,0-1.32-7.85,21.1,0,0,.74-5,2.27-17.85,0,0-6.7,5.38-13.14-5.68,0,0-1.68-2.51-.87-9l-1.42,0s0,.61-5,4.85c0,0-2.13,8.29-2.49,8.68a3.84,3.84,0,0,1-3.5,1s-9.21-2.92-10.27-3.88c0,0-2.78-2-5.38,4.15,0,0-.91,3.9.73,4.78C38.08,27,46.89,30.53,45.3,33c-1.18,1.83-1.92,1.31-10-2.27l-3.78-2.67.27.19a33.82,33.82,0,0,1-5.2-5S28.25,11.73,37,10.61a38.49,38.49,0,0,1,9.33,2.26c4,2.35,4-.19,7.37-3"/><path class="cls-3" d="M59.21,25.91s.56-2,4.22-2.12c4.2-.14,3.67,1.45,3.86,1.24s0,2.33,0,2.33L67,29s-.93,1.76-1.1,1.42a4.31,4.31,0,0,1-2.68,1.14S59.24,30.83,59.21,25.91Z"/><path class="cls-6" d="M77.48,42.53l.72-.18s2.75-.57.48-.58a11.86,11.86,0,0,0-2.73.15c-3.23.62-3.21.65-3.21.65C66.92,44,67.12,44,67.12,44c-2.35.59-3.55,1-3.55,1-1,.38-.92-.59-.92-.59-.07-1.74-.09-2.65-.09-2.65-.46-2.24-.83-7.42-.83-7.42a1.81,1.81,0,0,0-2.16-1.88c-2.46-.54-10.85,1.19-10.85,1.19-2.41.29-1.13,2.84-1.13,2.84,1,4,1.49,5.89,1.49,5.89,1.05,4.21,1.85,6.76,1.85,6.76,1.69,4.08,2.83,4.15,2.83,4.15,1.07,1.07,4.18,2,4.18,2a31.52,31.52,0,0,0,4.47.4,22.85,22.85,0,0,0,2.86-.26,10.42,10.42,0,0,0,2.54-1c.44-.34,3.2-2,3.2-2A5.72,5.72,0,0,1,73.47,51c1.94-.7,6.15-2.29,6.15-2.29l3-1.42c1.31-.83.63-.64.63-.64-1.93.74-4.81,1.71-4.81,1.71a8.73,8.73,0,0,1-2.88.76c-.26-.92.23-1.07.23-1.07l3-1c2.53-.92,2-.7,2-.7,2.44-1.2,1.13-.73,1.13-.73a28,28,0,0,1-3.22.94,23,23,0,0,1-2.84.68c-.87.08-.34-.59-.34-.59L78,45.89,81.29,45c1.69-.76.19-.62.19-.62-1.73.44-3.49.85-3.49.85-2.81.61-2.77.5-2.77.5-1.36,0-.34-.75-.34-.75a9.16,9.16,0,0,1,1.79-.62c2.32-.3,2.46-.29,2.46-.29.45-.06,1.29-.24,1.29-.24l1.31-.16c.16-.26-.57-.15-.57-.15-.16.06-2.18.14-2.18.14a22.91,22.91,0,0,0-2.84.21c-.82,0-3.64.82-3.63.66a6.23,6.23,0,0,1-.82,0c-.76,0,0-.57,0-.57.52-.2,2.57-.83,2.57-.83,1.75-.49,3.94-.84,3.94-.84"/></g></g></svg>